<mxfile host="app.diagrams.net" modified="2023-11-23T12:01:58.993Z" agent="Mozilla/5.0 (Windows NT 10.0; Win64; x64) AppleWebKit/537.36 (KHTML, like Gecko) Chrome/119.0.0.0 Safari/537.36" version="22.1.3" etag="FiTwKTE-6Eq9c7LVuiC5" type="github">
  <diagram name="Seite-1" id="QZtMsGUC_abDKHyx5tX9">
    <mxGraphModel>
      <root>
        <mxCell id="0" />
        <mxCell id="1" parent="0" />
      </root>
    </mxGraphModel>
  </diagram>
</mxfile>
